<svg xmlns="http://www.w3.org/2000/svg" xmlns:xlink="http://www.w3.org/1999/xlink" width="500" zoomAndPan="magnify" viewBox="0 0 375 225" height="300" preserveAspectRatio="xMidYMid meet" version="1.0"><defs><g/><clipPath id="710a68a8ba"><path d="M 1.695312 197.570312 L 189.0625 197.570312 L 189.0625 219.5625 L 1.695312 219.5625 Z M 1.695312 197.570312 " clip-rule="nonzero"/></clipPath><clipPath id="e28a42cde2"><path d="M 189.0625 2.996094 L 371.476562 2.996094 L 371.476562 24.992188 L 189.0625 24.992188 Z M 189.0625 2.996094 " clip-rule="nonzero"/></clipPath></defs><g fill="#000000" fill-opacity="1"><g transform="translate(-1.12938, 175.049722)"><g><path d="M 95.90625 0 L 69.015625 0 L 64.421875 -30.75 L 31.71875 -30.75 L 27.125 0 L 2.65625 0 L 29.78125 -169.515625 L 68.78125 -169.515625 Z M 35.109375 -53.765625 L 60.78125 -53.765625 L 47.953125 -139.484375 Z M 35.109375 -53.765625 "/></g></g></g><g fill="#000000" fill-opacity="1"><g transform="translate(108.571866, 175.049722)"><g><path d="M 9.6875 -169.515625 L 36.328125 -169.515625 L 36.328125 -24.21875 L 80.15625 -24.21875 L 80.15625 0 L 9.6875 0 Z M 9.6875 -169.515625 "/></g></g></g><g fill="#000000" fill-opacity="1"><g transform="translate(186.460612, 219.443353)"><g><path d="M 2.421875 -170.015625 L 85 -170.015625 L 85 -145.71875 L 57.078125 -145.71875 L 57.078125 0 L 30.359375 0 L 30.359375 -145.71875 L 2.421875 -145.71875 Z M 2.421875 -170.015625 "/></g></g></g><g fill="#000000" fill-opacity="1"><g transform="translate(285.06484, 219.443353)"><g><path d="M 34.25 -39.109375 C 34.25 -32.953125 35.503906 -28.617188 38.015625 -26.109375 C 40.523438 -23.597656 43.882812 -22.34375 48.09375 -22.34375 C 52.300781 -22.34375 55.660156 -23.597656 58.171875 -26.109375 C 60.679688 -28.617188 61.9375 -32.953125 61.9375 -39.109375 L 61.9375 -130.90625 C 61.9375 -137.0625 60.679688 -141.394531 58.171875 -143.90625 C 55.660156 -146.414062 52.300781 -147.671875 48.09375 -147.671875 C 43.882812 -147.671875 40.523438 -146.414062 38.015625 -143.90625 C 35.503906 -141.394531 34.25 -137.0625 34.25 -130.90625 Z M 7.53125 -129.203125 C 7.53125 -142.972656 11.007812 -153.539062 17.96875 -160.90625 C 24.9375 -168.269531 34.976562 -171.953125 48.09375 -171.953125 C 61.207031 -171.953125 71.242188 -168.269531 78.203125 -160.90625 C 85.171875 -153.539062 88.65625 -142.972656 88.65625 -129.203125 L 88.65625 -40.796875 C 88.65625 -27.035156 85.171875 -16.472656 78.203125 -9.109375 C 71.242188 -1.742188 61.207031 1.9375 48.09375 1.9375 C 34.976562 1.9375 24.9375 -1.742188 17.96875 -9.109375 C 11.007812 -16.472656 7.53125 -27.035156 7.53125 -40.796875 Z M 7.53125 -129.203125 "/></g></g></g><g clip-path="url(#710a68a8ba)"><path fill="#000000" d="M 1.695312 197.570312 L 189.066406 197.570312 L 189.066406 219.5625 L 1.695312 219.5625 Z M 1.695312 197.570312 " fill-opacity="1" fill-rule="nonzero"/></g><g clip-path="url(#e28a42cde2)"><path fill="#000000" d="M 189.0625 2.996094 L 371.449219 2.996094 L 371.449219 24.992188 L 189.0625 24.992188 Z M 189.0625 2.996094 " fill-opacity="1" fill-rule="nonzero"/></g></svg>